<?xml version="1.0" encoding="utf-8"?>
<!-- Generator: Adobe Illustrator 21.0.0, SVG Export Plug-In . SVG Version: 6.00 Build 0)  -->
<svg version="1.1" id="Calque_1" xmlns="http://www.w3.org/2000/svg" xmlns:xlink="http://www.w3.org/1999/xlink" x="0px" y="0px"
	 viewBox="0 0 63.6 56.4" style="enable-background:new 0 0 63.6 56.4;" xml:space="preserve">
<style type="text/css">
	.st0{display:none;}
	.st1{display:inline;}
	.st2{fill:none;stroke:#000000;stroke-width:2.8346;stroke-linecap:round;stroke-linejoin:round;stroke-miterlimit:10;}
	.st3{fill:none;stroke:#F7B633;stroke-width:1.4173;stroke-linecap:round;stroke-linejoin:round;stroke-miterlimit:10;}
	.st4{fill:none;stroke:#F7B633;stroke-width:1.3941;stroke-linecap:round;stroke-linejoin:round;stroke-miterlimit:10;}
	.st5{display:inline;fill:none;}
	.st6{font-family:'ArialMT';}
	.st7{font-size:11.642px;}
	.st8{display:inline;fill:none;stroke:#000000;stroke-width:0.2835;stroke-miterlimit:10;}
	.st9{stroke:#000000;stroke-width:0.2835;stroke-miterlimit:10;}
	.st10{stroke:#F7B633;stroke-width:0.2835;stroke-miterlimit:10;}
</style>
<g class="st0">
	<g class="st1">
		<polyline class="st2" points="34.9,51.6 48.5,43.7 55.4,39.8 58.8,37.8 59.6,37.3 60,37 60.3,36.7 60.6,36.4 60.7,36.1 60.8,35.7 
			60.7,35.4 		"/>
		<polyline class="st2" points="2.8,35.3 2.8,35.8 2.9,36.2 3.1,36.6 3.5,36.9 3.9,37.3 4.4,37.6 5.4,38.1 9.4,40.5 17.5,45.1 
			25.5,49.8 27.5,50.9 28.5,51.5 29,51.8 29.6,52 30.3,52.2 31,52.3 31.7,52.4 32.4,52.3 33.1,52.2 33.7,52.1 34.3,51.9 34.9,51.6 
					"/>
		<polyline class="st2" points="57.3,20.2 57.6,19.8 57.8,19.4 57.9,19 57.9,18.7 57.8,18.3 57.5,17.9 57.2,17.6 56.7,17.3 52.8,15 
			45,10.5 37.2,6 35.2,4.8 34.7,4.6 34.2,4.3 33.6,4.1 33,3.9 32.3,3.9 31.6,3.8 30.9,3.9 30.3,4 29.7,4.2 29.1,4.5 28.2,5.1 		"/>
		<polyline class="st2" points="7.5,17 7,17.3 6.5,17.6 6.2,17.9 5.9,18.3 5.8,18.7 5.8,19.1 5.9,19.4 6.1,19.8 6.4,20.2 6.9,20.5 
			7.8,21 9.7,22.1 17.4,26.5 25,30.9 28.8,33.2 29.3,33.4 29.8,33.7 30.5,33.8 31.1,33.9 31.8,34 32.4,34 33.1,33.9 33.7,33.7 		"/>
		<line class="st2" x1="2.8" y1="35.3" x2="5.8" y2="18.7"/>
		<line class="st2" x1="57.9" y1="18.7" x2="60.7" y2="35.4"/>
		<polyline class="st2" points="33.7,33.7 36.3,32.9 38.9,32 41.5,30.9 43.9,29.7 46.3,28.4 48.7,27 51,25.4 53.2,23.8 55.3,22 
			57.3,20.2 		"/>
		<polyline class="st2" points="7.5,17 10,16.1 12.5,15.2 14.9,14 17.3,12.8 19.6,11.5 21.9,10 24,8.5 26.1,6.8 28.2,5.1 		"/>
	</g>
</g>
<g>
	<g>
		<polyline class="st3" points="34.9,51.6 48.5,43.7 55.4,39.8 58.8,37.8 59.6,37.3 60,37 60.3,36.7 60.6,36.4 60.7,36.1 60.8,35.7 
			60.7,35.4 		"/>
		<polyline class="st3" points="2.8,35.3 2.8,35.8 2.9,36.2 3.1,36.6 3.5,36.9 3.9,37.3 4.4,37.6 5.4,38.1 9.4,40.5 17.5,45.1 
			25.5,49.8 27.5,50.9 28.5,51.5 29,51.8 29.6,52 30.3,52.2 31,52.3 31.7,52.4 32.4,52.3 33.1,52.2 33.7,52.1 34.3,51.9 34.9,51.6 
					"/>
		<polyline class="st3" points="57.3,20.2 57.6,19.8 57.8,19.4 57.9,19 57.9,18.7 57.8,18.3 57.5,17.9 57.2,17.6 56.7,17.3 52.8,15 
			45,10.5 37.2,6 35.2,4.8 34.7,4.6 34.2,4.3 33.6,4.1 33,3.9 32.3,3.9 31.6,3.8 30.9,3.9 30.3,4 29.7,4.2 29.1,4.5 28.2,5.1 		"/>
		<polyline class="st3" points="7.5,17 7,17.3 6.5,17.6 6.2,17.9 5.9,18.3 5.8,18.7 5.8,19.1 5.9,19.4 6.1,19.8 6.4,20.2 6.9,20.5 
			7.8,21 9.7,22.1 17.4,26.5 25,30.9 28.8,33.2 29.3,33.4 29.8,33.7 30.5,33.8 31.1,33.9 31.8,34 32.4,34 33.1,33.9 33.7,33.7 		"/>
		<line class="st3" x1="2.8" y1="35.3" x2="5.8" y2="18.7"/>
		<line class="st3" x1="57.9" y1="18.7" x2="60.7" y2="35.4"/>
		<polyline class="st3" points="33.7,33.7 36.3,32.9 38.9,32 41.5,30.9 43.9,29.7 46.3,28.4 48.7,27 51,25.4 53.2,23.8 55.3,22 
			57.3,20.2 		"/>
		<polyline class="st3" points="7.5,17 10,16.1 12.5,15.2 14.9,14 17.3,12.8 19.6,11.5 21.9,10 24,8.5 26.1,6.8 28.2,5.1 		"/>
	</g>
</g>
<g>
	<g>
		<polyline class="st4" points="35,52.4 49.1,44.3 56.2,40.2 59.8,38.1 60.6,37.6 61,37.3 61.3,37 61.6,36.7 61.7,36.3 61.8,36 
			61.8,35.6 		"/>
		<polyline class="st4" points="1.8,35.6 1.8,36 1.9,36.5 2.1,36.9 2.5,37.2 2.9,37.6 3.4,37.9 4.4,38.5 8.6,40.9 17,45.7 
			25.3,50.5 27.4,51.7 28.4,52.3 28.9,52.6 29.5,52.9 30.2,53 30.9,53.2 31.6,53.2 32.4,53.2 33.1,53.1 33.8,52.9 34.4,52.7 
			35,52.4 		"/>
		<polyline class="st4" points="58.9,18.4 58.8,18.3 58.7,17.9 58.4,17.5 58.1,17.2 57.6,16.9 53.5,14.5 45.4,9.9 37.3,5.2 35.3,4 
			34.8,3.7 34.3,3.4 33.7,3.2 33,3.1 32.3,3 31.6,3 30.9,3.1 30.2,3.2 29.6,3.4 29,3.6 28,4.2 		"/>
		<line class="st4" x1="58.9" y1="18.5" x2="58.9" y2="18.4"/>
		<polyline class="st4" points="6.6,16.6 6.1,16.9 5.6,17.2 5.3,17.6 5,17.9 4.9,18.3 4.9,18.5 		"/>
		<line class="st4" x1="1.8" y1="35.6" x2="4.9" y2="18.5"/>
		<line class="st4" x1="58.9" y1="18.4" x2="61.8" y2="35.6"/>
		<line class="st4" x1="58.9" y1="18.4" x2="58.9" y2="18.4"/>
		<polyline class="st4" points="6.6,16.6 9.2,15.7 11.8,14.7 14.3,13.5 16.8,12.3 19.2,10.9 21.5,9.4 23.8,7.8 25.9,6.1 28,4.2 		
			"/>
	</g>
</g>
<g class="st0">
	<polygon class="st5" points="32.3,19.6 21.9,24.9 12.4,19.1 22.7,13.9 	"/>
	<text transform="matrix(1.1199 -0.5663 0.857 0.5153 19.6625 23.4351)" class="st1 st6 st7">Z</text>
	<text transform="matrix(1.1199 -0.5663 0.857 0.5153 19.6625 23.4351)" class="st8 st6 st7">Z</text>
</g>
<g class="st0">
	<polygon class="st5" points="31.6,19.9 21.3,25.1 11.8,19.4 22.1,14.1 	"/>
	<text transform="matrix(1.1199 -0.5663 0.857 0.5153 19.0392 23.6854)" class="st1 st6 st7">Y</text>
	<text transform="matrix(1.1199 -0.5663 0.857 0.5153 19.0392 23.6854)" class="st8 st6 st7">Y</text>
</g>
<g class="st0">
	<polygon class="st5" points="31.6,19.9 21.3,25.1 11.8,19.4 22.1,14.1 	"/>
	<text transform="matrix(1.1199 -0.5663 0.857 0.5153 19.0392 23.6854)" class="st1 st6 st7">X</text>
	<text transform="matrix(1.1199 -0.5663 0.857 0.5153 19.0392 23.6854)" class="st8 st6 st7">X</text>
</g>
<g class="st0">
	<polygon class="st5" points="47.5,4.6 23.3,26.7 8.6,17.4 32.7,-4.6 	"/>
	<text transform="matrix(1.1199 -0.5663 0.857 0.5153 18.8747 23.6482)" class="st1 st6 st7">W</text>
	<text transform="matrix(1.1199 -0.5663 0.857 0.5153 18.8747 23.6482)" class="st8 st6 st7">W</text>
</g>
<g class="st0">
	<polygon class="st5" points="31.6,19.9 21.3,25.1 11.8,19.4 22.1,14.1 	"/>
	<text transform="matrix(1.1199 -0.5663 0.857 0.5153 19.0392 23.6854)" class="st1 st6 st7">V</text>
	<text transform="matrix(1.1199 -0.5663 0.857 0.5153 19.0392 23.6854)" class="st8 st6 st7">V</text>
</g>
<g class="st0">
	<polygon class="st5" points="31.6,19.9 21.3,25.1 11.8,19.4 22.1,14.1 	"/>
	<text transform="matrix(1.1199 -0.5663 0.857 0.5153 19.0392 23.6854)" class="st1 st6 st7">U</text>
	<text transform="matrix(1.1199 -0.5663 0.857 0.5153 19.0392 23.6854)" class="st8 st6 st7">U</text>
</g>
<g class="st0">
	<polygon class="st5" points="32.4,19.6 22.1,24.8 12.5,19.1 22.8,13.9 	"/>
	<text transform="matrix(1.1199 -0.5663 0.857 0.5153 19.7668 23.4138)" class="st1 st6 st7">T</text>
	<text transform="matrix(1.1199 -0.5663 0.857 0.5153 19.7668 23.4138)" class="st8 st6 st7">T</text>
</g>
<g class="st0">
	<polygon class="st5" points="31.6,19.9 21.3,25.1 11.8,19.4 22.1,14.1 	"/>
	<text transform="matrix(1.1199 -0.5663 0.857 0.5153 19.0392 23.6854)" class="st1 st6 st7">S</text>
	<text transform="matrix(1.1199 -0.5663 0.857 0.5153 19.0392 23.6854)" class="st8 st6 st7">S</text>
</g>
<g class="st0">
	<polygon class="st5" points="31.6,19.9 21.3,25.1 11.8,19.4 22.1,14.1 	"/>
	<text transform="matrix(1.1199 -0.5663 0.857 0.5153 19.0392 23.6854)" class="st1 st6 st7">R</text>
	<text transform="matrix(1.1199 -0.5663 0.857 0.5153 19.0392 23.6854)" class="st8 st6 st7">R</text>
</g>
<g class="st0">
	<polygon class="st5" points="31.6,19.9 21.3,25.1 11.8,19.4 22.1,14.1 	"/>
	<text transform="matrix(1.1199 -0.5663 0.857 0.5153 19.0392 23.6854)" class="st1 st6 st7">Q</text>
	<text transform="matrix(1.1199 -0.5663 0.857 0.5153 19.0392 23.6854)" class="st8 st6 st7">Q</text>
</g>
<g class="st0">
	<polygon class="st5" points="31.6,19.9 21.3,25.1 11.8,19.4 22.1,14.1 	"/>
	<text transform="matrix(1.1199 -0.5663 0.857 0.5153 19.0392 23.6854)" class="st1 st6 st7">P</text>
	<text transform="matrix(1.1199 -0.5663 0.857 0.5153 19.0392 23.6854)" class="st8 st6 st7">P</text>
</g>
<g class="st0">
	<polygon class="st5" points="31.6,19.9 21.3,25.1 11.8,19.4 22.1,14.1 	"/>
	<text transform="matrix(1.1199 -0.5663 0.857 0.5153 19.0392 23.6854)" class="st1 st6 st7">O</text>
	<text transform="matrix(1.1199 -0.5663 0.857 0.5153 19.0392 23.6854)" class="st8 st6 st7">O</text>
</g>
<g class="st0">
	<polygon class="st5" points="32.9,20.6 22.5,25.9 13,20.1 23.3,14.9 	"/>
	<text transform="matrix(1.1199 -0.5663 0.857 0.5153 20.2471 24.429)" class="st1 st6 st7">Ñ</text>
	<text transform="matrix(1.1199 -0.5663 0.857 0.5153 20.2471 24.429)" class="st8 st6 st7">Ñ</text>
</g>
<g class="st0">
	<polygon class="st5" points="31.6,19.9 21.3,25.1 11.8,19.4 22.1,14.1 	"/>
	<text transform="matrix(1.1199 -0.5663 0.857 0.5153 19.0392 23.6854)" class="st1 st6 st7">N</text>
	<text transform="matrix(1.1199 -0.5663 0.857 0.5153 19.0392 23.6854)" class="st8 st6 st7">N</text>
</g>
<g class="st0">
	<polygon class="st5" points="33,19.3 22,25.6 12.5,19.8 23.4,13.5 	"/>
	<text transform="matrix(1.1199 -0.5663 0.857 0.5153 19.0579 23.7371)" class="st1 st6 st7">M</text>
	<text transform="matrix(1.1199 -0.5663 0.857 0.5153 19.0579 23.7371)" class="st8 st6 st7">M</text>
</g>
<g class="st0">
	<polygon class="st5" points="31.8,20 21.5,25.3 11.9,19.5 22.2,14.3 	"/>
	<text transform="matrix(1.1199 -0.5663 0.857 0.5153 19.1939 23.8305)" class="st1 st6 st7">L</text>
	<text transform="matrix(1.1199 -0.5663 0.857 0.5153 19.1939 23.8305)" class="st8 st6 st7">L</text>
</g>
<g class="st0">
	<polygon class="st5" points="31.8,20 21.5,25.3 11.9,19.5 22.2,14.3 	"/>
	<text transform="matrix(1.1199 -0.5663 0.857 0.5153 19.1939 23.8305)" class="st1 st6 st7">K</text>
	<text transform="matrix(1.1199 -0.5663 0.857 0.5153 19.1939 23.8305)" class="st8 st6 st7">K</text>
</g>
<g class="st0">
	<polygon class="st5" points="33.6,19.1 23.3,24.3 13.7,18.5 24,13.3 	"/>
	<text transform="matrix(1.1199 -0.5663 0.857 0.5153 21.0016 22.8617)" class="st1 st6 st7">J</text>
	<text transform="matrix(1.1199 -0.5663 0.857 0.5153 21.0016 22.8617)" class="st8 st6 st7">J</text>
</g>
<g class="st0">
	<polygon class="st5" points="35.1,18.5 24.7,23.7 15.2,18 25.5,12.7 	"/>
	<text transform="matrix(1.1199 -0.5663 0.857 0.5153 22.445 22.2671)" class="st1 st6 st7">I</text>
	<text transform="matrix(1.1199 -0.5663 0.857 0.5153 22.445 22.2671)" class="st8 st6 st7">I</text>
</g>
<g class="st0">
	<polygon class="st5" points="31.8,20 21.5,25.3 11.9,19.5 22.2,14.3 	"/>
	<text transform="matrix(1.1199 -0.5663 0.857 0.5153 19.1939 23.8305)" class="st1 st6 st7">H</text>
	<text transform="matrix(1.1199 -0.5663 0.857 0.5153 19.1939 23.8305)" class="st8 st6 st7">H</text>
</g>
<g class="st0">
	<polygon class="st5" points="31.8,20 21.5,25.3 11.9,19.5 22.2,14.3 	"/>
	<text transform="matrix(1.1199 -0.5663 0.857 0.5153 19.1939 23.8305)" class="st1 st6 st7">G</text>
	<text transform="matrix(1.1199 -0.5663 0.857 0.5153 19.1939 23.8305)" class="st8 st6 st7">G</text>
</g>
<g class="st0">
	<polygon class="st5" points="31.8,20 21.5,25.3 11.9,19.5 22.2,14.3 	"/>
	<text transform="matrix(1.1199 -0.5663 0.857 0.5153 19.1939 23.8305)" class="st1 st6 st7">F</text>
	<text transform="matrix(1.1199 -0.5663 0.857 0.5153 19.1939 23.8305)" class="st8 st6 st7">F</text>
</g>
<g class="st0">
	<polygon class="st5" points="31.8,20 21.5,25.3 11.9,19.5 22.2,14.3 	"/>
	<text transform="matrix(1.1199 -0.5663 0.857 0.5153 19.1939 23.8305)" class="st1 st6 st7">E</text>
	<text transform="matrix(1.1199 -0.5663 0.857 0.5153 19.1939 23.8305)" class="st8 st6 st7">E</text>
</g>
<g class="st0">
	<polygon class="st5" points="31.8,20 21.5,25.3 11.9,19.5 22.2,14.3 	"/>
	<text transform="matrix(1.1199 -0.5663 0.857 0.5153 19.1939 23.8305)" class="st1 st6 st7">D</text>
	<text transform="matrix(1.1199 -0.5663 0.857 0.5153 19.1939 23.8305)" class="st8 st6 st7">D</text>
</g>
<g class="st0">
	<polygon class="st5" points="31.8,20 21.5,25.3 11.9,19.5 22.2,14.3 	"/>
	<text transform="matrix(1.1199 -0.5663 0.857 0.5153 19.1939 23.8305)" class="st1 st6 st7">C</text>
	<text transform="matrix(1.1199 -0.5663 0.857 0.5153 19.1939 23.8305)" class="st8 st6 st7">C</text>
</g>
<g class="st0">
	<polygon class="st5" points="31.8,19.8 21.5,25 11.9,19.2 22.2,14 	"/>
	<text transform="matrix(1.1199 -0.5663 0.857 0.5153 19.1934 23.5389)" class="st1 st6 st7">B</text>
	<text transform="matrix(1.1199 -0.5663 0.857 0.5153 19.1934 23.5389)" class="st8 st6 st7">B</text>
</g>
<g class="st0">
	<polygon class="st5" points="31.8,19.8 21.5,25 11.9,19.2 22.2,14 	"/>
	<text transform="matrix(1.1199 -0.5663 0.857 0.5153 19.1934 23.5389)" class="st1 st6 st7">A</text>
	<text transform="matrix(1.1199 -0.5663 0.857 0.5153 19.1934 23.5389)" class="st8 st6 st7">A</text>
</g>
<g class="st0">
	<g class="st1">
		<path class="st9" d="M20,15.7l-7,3.5l-0.2-0.1l7.3-3.7l0.2,0.1l-0.4,7.6l7-3.5l0.2,0.1l-7.3,3.7l-0.2-0.1L20,15.7z"/>
	</g>
</g>
<g class="st0">
	<g class="st1">
		<path class="st9" d="M12.5,19.1l7.7,0.7l-0.5-4.3l0.3-0.2l0.6,4.5l2.7,1.6L23,21.5l-2.8-1.7l-8.1-0.7H12.5z"/>
	</g>
</g>
<g class="st0">
	<g class="st1">
		<path class="st9" d="M13.1,18.9l7,0.3l0.1-3.9l0.3-0.2l-0.1,4l7.1,0.3l-0.3,0.2l-6.8-0.2l-0.2,3.7l-0.3,0.2l0.1-3.9l-7.3-0.3
			L13.1,18.9z"/>
	</g>
</g>
<g class="st0">
	<g class="st1">
		<path class="st9" d="M17.1,16.8l0.3-0.1l4.2,0.8l-1.2-2.4l0.3-0.1l1.2,2.6l6.1,1.2l-2.9-6.1l0.3-0.1l3.1,6.3L28.2,19l-6.1-1.2
			l1.7,3.4l-0.3,0.1l-11.2-2.2l0.3-0.1l10.7,2.1l-1.7-3.4L17.1,16.8z"/>
	</g>
</g>
<g class="st0">
	<g class="st1">
		<path class="st9" d="M12.6,19.1l10.7,2.1l-2.9-6.1l0.3-0.1l3.1,6.3l-0.3,0.1l-11.1-2.2L12.6,19.1z"/>
	</g>
</g>
<g class="st0">
	<g class="st1">
		<path class="st9" d="M23.8,17.5l-3.6-2.2l0.3-0.1l3.6,2.2c1.9,1.1,2.7,2.6-0.2,4.1s-5.6,0.8-7.4-0.2L12.8,19l0.3-0.1l3.6,2.2
			c1.7,1,4.2,1.6,6.9,0.3C26.4,19.9,25.4,18.5,23.8,17.5z"/>
	</g>
</g>
<g>
	<g>
		<path class="st10" d="M20.3,15.5l-3.5,1.8l6.9,4.1l-0.3,0.1l-6.9-4.1L13,19.2l-0.3-0.1l7.4-3.7L20.3,15.5z"/>
	</g>
</g>
<g class="st0">
	<g class="st1">
		<path class="st9" d="M18.7,22.5c1.5,0,3.1-0.4,4.3-1c1.4-0.7,2.7-1.9,1.5-2.6c-1.4-0.8-3.5,0-4.8,0.7C18,20.5,16,21,14.6,20.1
			c-1.4-0.8-0.1-2,1.4-2.7c1.5-0.8,2.6-1,3.9-0.9l-0.2,0.2c-1.3-0.1-2.5,0.3-3.5,0.8c-1.4,0.7-2.5,1.7-1.3,2.5
			c1.4,0.8,3.2,0.2,4.7-0.5c1.7-0.8,3.9-1.5,5.3-0.7c1.4,0.8-0.1,2.1-1.5,2.9c-1.5,0.8-3.2,1-4.5,1.1L18.7,22.5z"/>
	</g>
</g>
<g class="st0">
	<g class="st1">
		<path class="st9" d="M20.1,23.2L13,18.9l3.8-1.9c1.5-0.8,3.7-0.7,4.8,0c1.1,0.7,1.1,1.7-0.2,2.5l5.1,0.5l-0.4,0.1L21,19.6
			l-3.4,1.7l2.8,1.7L20.1,23.2z M17.3,21.2l3.6-1.8c1.4-0.7,1.3-1.7,0.3-2.3s-3-0.6-4.3,0l-3.5,1.8L17.3,21.2z"/>
	</g>
</g>
<g class="st0">
	<g class="st1">
		<path class="st9" d="M16.2,21.2c-1.9-1.1-1.7-3.1,0.7-4.3c2.6-1.3,6.1-1.1,7.9,0c1,0.6,1.4,1.4,1.2,2.3l1.8,0.1l-0.3,0.2L26,19.4
			c-0.2,0.7-0.9,1.3-1.9,1.9C21.5,22.4,18,22.3,16.2,21.2z M23.7,19.3l0.3-0.2l1.7,0.1c0.1-0.9-0.3-1.6-1.2-2.2
			c-1.8-1.1-5.1-1.2-7.4,0c-2.4,1.2-2.3,3.1-0.7,4.1c1.8,1.1,5.2,1.1,7.4,0c1-0.5,1.6-1.1,1.8-1.7L23.7,19.3z"/>
	</g>
</g>
<g class="st0">
	<g class="st1">
		<path class="st9" d="M20.1,23.2L13,18.9l3.8-1.9c1.5-0.8,3.7-0.7,4.8,0c1.1,0.7,1.1,1.8-0.4,2.6l-3.6,1.8l2.8,1.7L20.1,23.2z
			 M17.3,21.2l3.6-1.8c1.4-0.7,1.3-1.7,0.3-2.3s-3-0.6-4.3,0l-3.5,1.8L17.3,21.2z"/>
	</g>
</g>
<g class="st0">
	<g class="st1">
		<path class="st9" d="M16.2,21.2c-1.9-1.1-1.7-3.1,0.7-4.3c2.6-1.3,6.1-1.1,7.9,0c1.9,1.1,1.7,3.1-0.7,4.3
			C21.5,22.4,18,22.3,16.2,21.2z M23.9,21.1c2.4-1.2,2.3-3.1,0.7-4.1c-1.8-1.1-5.1-1.2-7.4,0c-2.5,1.2-2.4,3.1-0.8,4.1
			C18.3,22.1,21.5,22.3,23.9,21.1z"/>
	</g>
</g>
<g class="st0">
	<g class="st1">
		<path class="st9" d="M14.8,19.8l6.7,4l-0.3,0.1l-7.1-4.3l0.2-0.1l13.9,0.6L21.4,16l0.3-0.1l7.1,4.2l-0.3,0.2L14.8,19.8z
			 M15.7,17.3c-0.6,0.3,0,0.7,0,0.7l-0.3,0.1l0,0c0,0-0.8-0.5,0.1-0.9c0.6-0.3,1.6-0.1,2.3-0.5c0.6-0.3,0.1-0.6,0.1-0.6l0.3-0.1
			c0,0,0.7,0.5-0.2,0.9C17.1,17.3,16.1,17.1,15.7,17.3z"/>
	</g>
</g>
<g class="st0">
	<g class="st1">
		<path class="st9" d="M13.6,19l6.7,4L20,23.1l-7.1-4.3l0.2-0.1L27,19.2l-6.8-4.1l0.3-0.1l7.1,4.3l-0.3,0.2L13.6,19z"/>
	</g>
</g>
<g class="st0">
	<g class="st1">
		<path class="st9" d="M28.7,18.8l-6.6-4l1.1,5.2L23,20.1l-9.3-1l6.6,4L20,23.2l-7.1-4.3l0.2-0.1l9.7,1.1l-1.2-5.4l0.2-0.1l7.1,4.3
			L28.7,18.8z"/>
	</g>
</g>
<g class="st0">
	<g class="st1">
		<path class="st9" d="M20.2,23.3l-7.1-4.2l0.3-0.1l6.9,4.1l5.8-2.9l0.2,0.1L20.2,23.3z"/>
	</g>
</g>
<g class="st0">
	<g class="st1">
		<path class="st9" d="M20.2,23.3l-7.1-4.2l0.3-0.1l4.6,2.8l1.9-6l0.4-0.2L19,19.8l8,0.3h-0.4l-7.7-0.3l-0.6,2.1l2.2,1.3L20.2,23.3z
			"/>
	</g>
</g>
<g class="st0">
	<g class="st1">
		<path class="st9" d="M20.6,22.5c0.8-0.1,1.5-0.3,2.3-0.7c2.2-1.1,1.2-2-0.9-3.3l-3.6-2.2l0.3-0.1l3.6,2.2c2.2,1.3,3.3,2.3,0.9,3.5
			c-0.8,0.4-1.6,0.6-2.4,0.8L20.6,22.5z"/>
	</g>
</g>
<g class="st0">
	<g class="st1">
		<path class="st9" d="M23.4,21.8l-7.1-4.3l0.3-0.1l7.1,4.3L23.4,21.8z"/>
	</g>
</g>
<g class="st0">
	<g class="st1">
		<path class="st9" d="M20,15.6l7.1,4.3L26.8,20l-3.5-2.1l-6.4,3.2l3.5,2.1l-0.3,0.1l-7-4.2l0.3-0.1l3.4,2l6.4-3.3l-3.4-2L20,15.6z"
			/>
	</g>
</g>
<g class="st0">
	<g class="st1">
		<path class="st9" d="M24.4,17.5l3.4,2l-0.3,0.1l-1.2-0.7c-0.1,0.9-0.8,1.8-2.1,2.4c-2.6,1.3-6.2,1.1-8,0s-1.8-3,0.6-4.3
			c1.9-1,3.6-1.1,5.1-0.9l-0.1,0.3c-1.7-0.2-3.3,0.1-4.7,0.8c-2.4,1.2-2.2,3-0.6,4c1.8,1.1,5.2,1.1,7.5,0c1.2-0.6,2.4-1.9,1.9-2.6
			l-1.5-0.9l-2.2,1.1L22,18.7L24.4,17.5z"/>
	</g>
</g>
<g class="st0">
	<g class="st1">
		<path class="st9" d="M20.2,23.3l-7.1-4.2l6-3l0.2,0.1l-5.8,2.9l3.2,1.9l5-2.5l0.2,0.1l-5,2.5l3.5,2.1L20.2,23.3z"/>
	</g>
</g>
<g class="st0">
	<g class="st1">
		<path class="st9" d="M26,20.2l0.2,0.1l-6.1,3.1l-7-4.3l6-3l0.2,0.1l-5.8,2.9l3.2,1.9l5-2.5l0.2,0.1l-5,2.5l3.3,2L26,20.2z"/>
	</g>
</g>
<g class="st0">
	<g class="st1">
		<path class="st9" d="M20.2,23.3l-7.1-4.2l3-1.5c2.9-1.5,5.9-1.2,7.9-0.1c2.1,1.3,1.9,3-0.8,4.3L20.2,23.3z M16.2,17.7l-2.7,1.4
			l6.7,4l2.7-1.4c2.7-1.4,2.6-2.9,0.7-4.1C21.6,16.5,18.9,16.4,16.2,17.7z"/>
	</g>
</g>
<g class="st0">
	<g class="st1">
		<path class="st9" d="M16.9,17.1c1.9-1,3.6-1.1,5.1-0.9l-0.2,0.2c-1.7-0.2-3.3,0.1-4.7,0.8c-2.4,1.2-2.2,3-0.6,4
			c1.8,1.1,5.2,1.1,7.5,0c1.1-0.6,2.3-1.9,1.9-2.6l0.3-0.1c0.5,0.9-0.6,2.2-2,2.8c-2.6,1.3-6.2,1.1-8,0
			C14.4,20.3,14.4,18.4,16.9,17.1z"/>
	</g>
</g>
<g class="st0">
	<g class="st1">
		<path class="st9" d="M24.4,20.9l-4.3,2.2L13,18.8l4.1-2.1c1.3-0.7,3-0.5,3.9,0c0.7,0.4,0.8,1.1,0.3,1.7c1.3-0.4,2.7-0.3,3.5,0.2
			C25.8,19.2,25.7,20.2,24.4,20.9z M13.5,18.8l3.2,1.9l3.8-1.9c1.1-0.6,1.1-1.5,0.3-1.9c-0.8-0.5-2.3-0.6-3.5,0L13.5,18.8z
			 M21.1,18.8L17,20.9l3.3,2l4-2c1.1-0.6,1.2-1.5,0.4-2C23.8,18.2,22.2,18.2,21.1,18.8z"/>
	</g>
</g>
<g class="st0">
	<g class="st1">
		<path class="st9" d="M19.5,23.4l-3-6.3l0.2-0.1l11.1,2.2l-0.3,0.1l-4-0.8l-4.8,2.4l1.1,2.3L19.5,23.4z M16.9,17.2l1.7,3.6l4.6-2.3
			L16.9,17.2z"/>
	</g>
</g>
</svg>
