<?xml version="1.0" standalone="no"?>
<!DOCTYPE svg PUBLIC "-//W3C//DTD SVG 20010904//EN"
 "http://www.w3.org/TR/2001/REC-SVG-20010904/DTD/svg10.dtd">
<svg version="1.0" xmlns="http://www.w3.org/2000/svg"
 width="1024.000000pt" height="1024.000000pt" viewBox="0 0 1024.000000 1024.000000"
 preserveAspectRatio="xMidYMid meet">
<metadata>
Created by potrace 1.11, written by Peter Selinger 2001-2013
</metadata>
<g transform="translate(0.000000,1024.000000) scale(0.100000,-0.100000)"
fill="#000000" stroke="none">
<path d="M5039 9286 c-2 -2 -26 -7 -54 -10 -178 -23 -371 -84 -445 -142 -8 -7
-32 -21 -53 -32 -21 -11 -62 -42 -91 -69 -29 -26 -85 -77 -125 -113 -40 -36
-90 -80 -110 -99 -20 -18 -53 -47 -74 -65 -22 -17 -47 -38 -57 -46 -147 -123
-270 -219 -345 -270 -44 -30 -82 -57 -85 -60 -3 -3 -32 -23 -65 -45 -33 -22
-62 -42 -65 -45 -12 -13 -193 -130 -200 -130 -5 0 -10 -3 -12 -7 -3 -9 -115
-83 -124 -83 -3 0 -12 -6 -19 -12 -28 -25 -44 -38 -48 -38 -3 0 -46 -25 -96
-55 -51 -30 -96 -55 -101 -55 -6 0 -10 -4 -10 -8 0 -4 -12 -13 -27 -19 -16 -7
-37 -18 -48 -25 -90 -59 -153 -93 -167 -90 -5 1 -8 -2 -8 -8 0 -5 -4 -10 -9
-10 -5 0 -81 -35 -168 -77 -178 -86 -161 -78 -191 -88 -12 -4 -22 -11 -22 -16
0 -5 -3 -8 -7 -7 -9 2 -65 -23 -198 -89 -49 -25 -92 -45 -95 -45 -3 0 -21 -9
-42 -19 -20 -10 -67 -30 -105 -44 -37 -14 -77 -29 -88 -34 -57 -25 -550 -205
-590 -215 -56 -15 -83 -27 -167 -78 -63 -38 -111 -76 -135 -106 -21 -25 -50
-59 -65 -75 -14 -15 -31 -49 -37 -75 -11 -46 -14 -65 -26 -147 -3 -23 -7 -52
-10 -65 -4 -20 -27 -147 -49 -265 -2 -11 -7 -38 -11 -60 -5 -22 -9 -49 -11
-60 -1 -11 -4 -29 -7 -40 -3 -11 -8 -40 -12 -65 -4 -25 -9 -54 -11 -65 -3 -11
-7 -35 -10 -54 -3 -18 -8 -43 -10 -55 -2 -11 -11 -59 -19 -106 -14 -82 -19
-107 -30 -160 -2 -14 -7 -41 -10 -60 -8 -49 -14 -81 -20 -110 -3 -14 -8 -42
-11 -63 -8 -49 -12 -72 -14 -72 -1 0 -3 -11 -5 -25 -3 -25 -13 -85 -21 -124
-2 -11 -6 -34 -9 -51 -3 -16 -10 -52 -15 -80 -5 -27 -12 -63 -15 -80 -3 -16
-7 -40 -9 -51 -2 -12 -7 -37 -10 -55 -3 -19 -8 -44 -10 -55 -2 -12 -7 -37 -10
-55 -3 -19 -8 -45 -11 -59 -3 -14 -12 -65 -21 -115 -8 -49 -17 -101 -20 -115
-2 -14 -11 -61 -19 -105 -8 -44 -16 -90 -19 -101 -2 -12 -7 -37 -10 -55 -3
-19 -10 -56 -16 -84 -9 -45 -14 -76 -23 -140 -1 -11 -5 -24 -8 -30 -7 -14 -4
-83 6 -130 5 -22 8 -43 7 -47 -4 -18 50 -118 75 -141 116 -105 166 -147 174
-147 6 0 15 -5 22 -11 21 -18 315 -189 326 -189 6 0 11 -4 11 -10 0 -5 4 -10
9 -10 5 0 65 -32 133 -71 67 -39 143 -83 168 -97 25 -13 56 -31 70 -39 77 -44
129 -74 165 -94 22 -12 93 -53 158 -90 65 -38 122 -69 127 -69 6 0 10 -4 10
-10 0 -5 4 -10 9 -10 5 0 49 -23 98 -51 48 -28 117 -67 153 -87 36 -19 76 -44
89 -54 13 -10 27 -18 32 -18 5 0 42 -20 82 -45 41 -25 78 -45 82 -45 4 0 27
-13 52 -30 24 -16 46 -30 48 -30 2 0 28 -14 57 -31 29 -17 82 -47 118 -67 36
-19 76 -44 89 -54 13 -10 28 -18 32 -18 7 0 110 -58 159 -90 8 -6 22 -13 30
-17 8 -4 55 -31 104 -60 49 -29 90 -53 91 -53 1 0 69 -39 151 -87 82 -47 159
-91 171 -97 13 -6 23 -14 23 -18 0 -5 4 -8 10 -8 5 0 53 -26 107 -57 54 -31
111 -64 126 -72 16 -9 36 -20 45 -26 10 -5 118 -68 242 -139 124 -72 228 -134
231 -139 3 -4 12 -9 20 -11 14 -2 115 -57 134 -73 6 -4 39 -24 75 -42 36 -19
67 -38 68 -43 2 -4 8 -8 12 -8 5 0 51 -25 102 -56 184 -112 223 -130 312 -140
28 -4 59 -11 69 -16 10 -5 21 -7 24 -4 4 3 13 1 20 -6 34 -28 431 -12 515 21
13 5 55 19 93 31 71 22 237 105 243 121 2 5 7 7 12 4 4 -3 23 6 41 18 19 13
81 50 139 83 57 32 114 64 125 71 11 7 36 20 55 30 19 10 37 20 40 23 7 7 34
23 130 77 47 26 93 52 102 58 64 38 150 85 158 85 4 0 10 4 12 8 3 9 274 165
296 170 6 2 12 8 12 13 0 5 5 9 10 9 6 0 65 32 131 70 66 39 124 70 129 70 6
0 10 5 10 10 0 6 5 10 11 10 6 0 43 20 82 44 40 24 95 55 122 70 28 15 68 38
90 52 22 14 52 30 68 37 15 6 27 15 27 20 0 4 5 5 10 2 6 -3 10 -2 10 3 0 5
15 15 33 23 17 7 34 16 37 19 5 6 334 196 408 235 20 11 39 22 42 25 9 9 85
51 103 57 9 3 17 9 17 14 0 5 4 9 9 9 4 0 48 23 97 51 49 29 105 61 124 72 70
39 205 118 220 127 8 6 24 14 35 20 11 5 43 23 70 40 28 17 58 33 68 37 9 3
17 9 17 13 0 4 11 11 25 14 14 4 25 11 25 16 0 6 7 10 14 10 8 0 35 14 59 30
25 17 48 30 52 30 4 0 19 8 33 19 15 10 50 31 77 45 58 31 88 49 95 56 5 5 41
26 100 57 19 10 37 21 40 24 3 3 25 16 50 30 25 13 47 27 48 32 2 4 8 7 13 7
13 0 211 117 316 187 45 30 102 77 128 104 25 27 50 49 55 49 6 0 10 5 10 12
0 6 6 19 14 27 15 18 50 153 49 191 -1 29 -11 114 -18 150 -2 14 -7 41 -9 60
-3 19 -7 46 -10 60 -3 13 -8 40 -11 60 -5 34 -8 53 -20 110 -2 14 -7 45 -10
70 -3 25 -8 52 -10 60 -2 8 -6 33 -10 55 -3 22 -8 54 -12 70 -3 17 -5 38 -5
48 0 9 -2 17 -6 17 -4 0 -7 12 -8 28 0 28 -1 35 -27 187 -9 50 -18 104 -21
120 -3 17 -7 41 -10 55 -2 14 -10 59 -16 100 -6 41 -14 86 -16 100 -3 14 -7
39 -10 55 -2 17 -9 51 -15 77 -6 26 -8 52 -4 58 3 5 1 10 -5 10 -6 0 -8 5 -5
10 4 6 1 17 -5 25 -9 10 -9 15 -1 15 7 0 8 8 2 23 -5 12 -11 40 -15 62 -3 22
-8 51 -11 65 -3 14 -7 46 -10 73 -2 26 -6 50 -8 55 -5 7 -13 49 -22 117 -3 17
-7 41 -10 55 -3 14 -10 52 -15 85 -5 33 -11 71 -14 85 -3 14 -7 41 -10 60 -2
19 -7 46 -10 60 -3 14 -8 43 -11 64 -3 21 -8 48 -10 60 -3 12 -7 37 -9 56 -3
19 -11 73 -20 120 -18 103 -27 158 -31 186 -2 11 -8 29 -13 40 -6 10 -23 44
-37 74 -25 51 -103 138 -150 167 -53 34 -189 113 -192 113 -2 0 -22 11 -44 26
-22 14 -55 33 -72 43 -18 10 -83 48 -145 85 -62 36 -117 66 -122 66 -4 0 -10
4 -12 8 -1 5 -54 38 -116 73 -62 35 -128 72 -145 83 -18 10 -54 30 -80 45 -26
14 -56 31 -65 36 -9 6 -49 28 -87 50 -39 22 -88 50 -110 63 -22 12 -48 25 -57
29 -10 3 -18 9 -18 14 0 5 -9 9 -19 9 -11 0 -21 4 -23 8 -1 4 -95 60 -208 124
-113 64 -225 128 -250 142 -25 15 -53 29 -62 33 -10 3 -18 9 -18 14 0 5 -5 9
-10 9 -6 0 -84 42 -173 94 -89 52 -178 103 -197 113 -43 24 -139 80 -160 93
-19 12 -292 170 -341 198 -20 11 -47 26 -60 34 -13 7 -26 15 -29 18 -3 3 -21
14 -40 25 -19 10 -53 30 -75 42 -22 13 -52 29 -67 35 -16 7 -28 16 -28 20 0 4
-5 8 -10 8 -6 0 -45 21 -88 48 -43 26 -99 58 -125 72 -26 13 -47 28 -47 32 0
5 -6 8 -14 8 -7 0 -25 9 -40 21 -14 11 -26 18 -26 15 0 -2 -30 15 -67 40 -38
24 -73 44 -80 44 -6 0 -13 3 -15 8 -6 13 -291 178 -338 195 -69 26 -232 49
-361 53 -64 2 -118 2 -120 0z m214 -369 c43 -3 84 -10 90 -16 6 -6 21 -11 33
-11 12 0 60 -20 106 -43 47 -24 103 -51 124 -60 22 -9 113 -62 203 -117 90
-55 166 -100 168 -100 2 0 20 -11 41 -24 20 -12 39 -23 42 -22 3 0 26 -14 52
-32 26 -18 49 -32 52 -32 3 0 29 -14 58 -31 115 -69 234 -136 251 -142 9 -3
17 -11 17 -17 0 -5 7 -10 15 -10 12 0 59 -27 100 -57 6 -5 17 -9 25 -11 7 -2
26 -12 41 -23 15 -10 32 -19 38 -19 6 0 11 -4 11 -8 0 -4 12 -13 28 -19 31
-13 105 -55 112 -64 3 -4 15 -9 28 -13 12 -4 22 -12 22 -17 0 -5 5 -9 11 -9 6
0 60 -29 120 -65 61 -36 114 -65 119 -65 5 0 10 -3 12 -7 2 -5 23 -19 48 -32
25 -14 124 -70 220 -126 96 -56 195 -113 220 -127 51 -28 66 -37 235 -135 66
-38 131 -76 145 -84 14 -8 33 -20 43 -28 9 -8 17 -11 17 -8 0 3 24 -10 52 -29
29 -19 58 -34 65 -34 7 0 13 -4 13 -10 0 -5 4 -10 10 -10 5 0 82 -43 171 -95
89 -52 166 -95 170 -95 5 0 9 -4 9 -10 0 -5 4 -10 9 -10 5 0 39 -18 75 -40 36
-22 70 -40 76 -40 5 0 10 -4 10 -9 0 -5 8 -11 18 -14 9 -4 40 -20 67 -37 28
-17 57 -34 65 -37 8 -4 20 -11 25 -15 6 -5 55 -35 110 -67 135 -79 170 -120
159 -188 -3 -21 -10 -39 -15 -41 -5 -2 -9 -10 -9 -18 0 -20 -106 -124 -290
-284 -9 -8 -40 -35 -67 -60 -27 -25 -72 -63 -98 -85 -27 -22 -53 -45 -59 -50
-6 -6 -38 -33 -71 -60 -32 -28 -71 -60 -85 -72 -29 -26 -87 -69 -185 -138 -68
-48 -83 -59 -108 -80 -7 -6 -25 -19 -42 -29 -16 -11 -34 -23 -40 -28 -9 -8
-92 -66 -270 -189 -70 -49 -174 -113 -295 -182 -19 -11 -48 -28 -65 -38 -16
-11 -37 -22 -45 -26 -8 -3 -31 -16 -50 -28 -19 -12 -69 -39 -110 -60 -41 -22
-77 -42 -80 -45 -25 -27 -602 -309 -815 -398 -155 -65 -571 -217 -618 -226
-13 -3 -214 -65 -397 -124 -101 -32 -127 -36 -215 -36 -89 0 -129 3 -200 17
-11 3 -42 7 -70 11 -74 10 -183 63 -397 193 -71 43 -136 83 -145 88 -10 6
-117 69 -238 141 -351 209 -420 249 -427 246 -5 -1 -8 2 -8 7 0 5 -8 11 -17
15 -10 3 -34 15 -53 27 -36 22 -385 225 -455 264 -22 13 -80 47 -130 75 -49
29 -103 60 -120 69 -16 9 -31 19 -33 24 -2 4 -8 7 -12 7 -8 0 -209 112 -250
140 -8 5 -28 16 -45 25 -16 8 -37 19 -45 25 -14 9 -88 52 -160 93 -93 52 -325
184 -358 204 -20 12 -44 25 -52 29 -8 5 -69 39 -135 77 -66 39 -144 83 -173
100 -30 16 -99 56 -154 88 -55 32 -102 59 -105 59 -3 0 -17 8 -31 18 -15 11
-58 36 -97 57 -104 56 -108 59 -123 73 -7 6 -18 12 -23 12 -5 0 -23 21 -39 47
-47 74 -38 133 29 188 31 26 91 64 114 71 9 4 17 10 17 15 0 5 3 8 8 7 4 0 14
2 22 5 17 8 289 107 305 111 6 2 17 6 25 9 45 17 247 90 260 92 8 2 57 20 109
39 98 38 907 439 970 481 19 14 39 25 43 25 4 0 37 18 73 40 36 22 70 40 75
40 6 0 10 5 10 12 0 6 3 9 6 5 5 -5 89 41 119 66 6 4 105 70 220 146 116 76
218 145 227 155 9 9 19 16 23 16 3 0 34 21 69 48 35 26 74 54 86 62 24 16 122
91 130 100 3 3 39 32 80 65 41 33 77 62 80 65 3 3 27 24 55 45 27 22 55 45 61
50 18 15 44 36 94 74 25 19 52 42 61 50 20 19 41 36 94 75 22 17 42 33 46 38
13 19 198 130 248 149 62 23 141 40 153 33 5 -3 8 -1 8 4 0 9 97 8 253 -1z
m-4108 -2706 c28 -14 52 -29 53 -33 2 -5 10 -8 17 -8 7 0 15 -5 17 -11 2 -5
10 -11 19 -12 8 -2 38 -17 66 -35 27 -18 55 -32 61 -32 7 0 12 -4 12 -10 0 -5
4 -10 9 -10 7 0 39 -17 119 -65 10 -5 49 -28 87 -50 39 -22 79 -45 90 -52 11
-7 27 -15 35 -20 8 -4 68 -37 132 -75 65 -37 122 -68 127 -68 5 0 11 -3 13 -7
3 -8 66 -44 115 -67 13 -6 23 -14 23 -18 0 -5 6 -8 13 -8 6 0 40 -18 75 -40
34 -22 65 -40 68 -40 2 0 70 -38 150 -85 81 -47 148 -85 150 -85 3 0 21 -11
42 -23 20 -13 57 -35 82 -49 25 -14 95 -54 156 -90 61 -36 117 -68 125 -71 8
-4 21 -11 29 -17 15 -10 202 -118 288 -167 24 -13 69 -40 100 -59 31 -18 63
-34 70 -34 6 0 12 -5 12 -10 0 -6 11 -15 24 -20 14 -5 55 -27 91 -50 37 -22
69 -40 72 -40 2 0 25 -14 51 -32 26 -18 48 -31 50 -30 1 1 10 -2 20 -8 60 -35
408 -244 444 -267 24 -15 46 -27 50 -28 4 0 17 -8 28 -17 11 -10 23 -18 25
-18 3 0 42 -22 86 -50 44 -27 85 -50 90 -50 5 0 9 -3 9 -8 0 -6 15 -14 90 -46
14 -6 45 -22 70 -37 44 -26 102 -42 185 -53 22 -3 51 -8 65 -10 89 -16 125
-19 210 -20 115 -1 167 7 273 41 45 14 87 26 92 28 6 1 17 5 25 8 8 3 69 22
135 42 66 20 156 48 200 63 44 14 82 27 85 27 3 1 12 4 20 8 69 27 189 67 202
67 8 0 18 3 22 7 3 4 12 8 19 9 11 2 171 67 332 136 39 16 83 35 100 41 38 15
483 238 600 301 50 27 108 58 130 70 22 11 42 23 45 26 3 3 30 18 60 34 30 16
105 58 165 94 61 35 142 83 180 106 39 22 99 61 134 86 34 25 73 52 86 60 47
30 170 115 175 121 3 3 34 25 70 50 36 24 70 49 76 54 13 12 37 30 142 105 46
32 100 73 120 90 101 84 127 107 148 128 13 12 26 22 29 22 3 0 13 8 23 18 10
9 47 42 82 72 35 30 86 75 114 100 46 41 71 63 186 168 19 17 35 30 37 29 1
-2 5 -21 7 -42 3 -22 8 -51 11 -65 2 -13 7 -40 10 -60 3 -20 8 -47 10 -60 3
-14 7 -38 10 -55 2 -16 7 -41 10 -55 2 -14 8 -45 11 -70 3 -25 8 -56 10 -70 3
-14 7 -36 9 -50 2 -14 6 -36 9 -50 2 -14 7 -41 10 -60 3 -19 8 -46 10 -60 3
-14 7 -42 10 -64 4 -21 9 -42 11 -47 3 -4 7 -29 9 -56 2 -26 6 -59 10 -73 3
-14 8 -41 11 -60 2 -19 7 -46 9 -60 3 -14 12 -65 20 -115 8 -49 18 -106 21
-125 3 -19 7 -46 9 -60 8 -60 18 -115 21 -120 2 -3 6 -26 9 -50 3 -25 13 -83
21 -130 9 -47 18 -98 19 -115 4 -30 12 -76 22 -128 3 -16 7 -38 9 -50 1 -12 5
-35 8 -52 3 -16 9 -50 12 -75 4 -25 9 -54 11 -65 3 -11 6 -36 9 -55 2 -19 4
-35 5 -35 2 0 7 -25 14 -72 16 -101 16 -104 -10 -130 -13 -13 -24 -28 -24 -33
0 -6 -3 -10 -8 -10 -4 0 -18 -10 -32 -23 -33 -29 -204 -137 -219 -137 -6 0
-11 -4 -11 -8 0 -5 -19 -18 -42 -31 -24 -12 -61 -33 -83 -47 -22 -14 -52 -30
-67 -37 -16 -6 -28 -15 -28 -19 0 -4 -4 -8 -9 -8 -5 0 -45 -22 -88 -48 -43
-27 -85 -52 -93 -55 -8 -4 -28 -15 -45 -26 -16 -10 -104 -60 -195 -111 -91
-51 -183 -104 -205 -117 -22 -13 -55 -31 -74 -39 -19 -9 -40 -22 -48 -30 -8
-8 -21 -14 -29 -14 -8 0 -14 -4 -14 -9 0 -5 -12 -14 -27 -20 -16 -5 -50 -23
-78 -39 -27 -16 -70 -41 -95 -54 -25 -14 -70 -40 -100 -57 -30 -18 -63 -35
-72 -38 -10 -3 -18 -10 -18 -15 0 -5 -4 -6 -10 -3 -5 3 -10 2 -10 -3 0 -7 -43
-34 -60 -36 -3 -1 -21 -11 -40 -22 -133 -80 -280 -164 -289 -164 -6 0 -11 -4
-11 -10 0 -5 -5 -10 -10 -10 -6 0 -27 -11 -48 -24 -20 -12 -84 -50 -142 -83
-58 -34 -167 -97 -244 -142 -76 -44 -140 -81 -142 -81 -2 0 -28 -16 -58 -35
-30 -19 -60 -35 -66 -35 -5 0 -10 -4 -10 -9 0 -5 -11 -12 -24 -15 -14 -3 -31
-12 -38 -19 -7 -7 -26 -20 -43 -28 -16 -9 -86 -49 -155 -89 -69 -41 -141 -82
-160 -92 -19 -10 -56 -32 -82 -47 -25 -16 -66 -40 -90 -54 -23 -13 -67 -38
-96 -56 -29 -17 -57 -31 -62 -31 -6 0 -10 -3 -10 -8 0 -4 -9 -12 -20 -17 -63
-32 -147 -79 -160 -90 -8 -7 -40 -26 -70 -42 -30 -17 -89 -50 -130 -74 -41
-25 -97 -56 -125 -69 -27 -14 -52 -27 -55 -30 -3 -3 -12 -7 -20 -8 -8 -2 -40
-10 -70 -18 -31 -8 -78 -16 -105 -19 -28 -2 -72 -8 -100 -14 -46 -9 -140 -7
-195 4 -13 2 -42 7 -64 11 -22 3 -48 10 -57 14 -9 5 -19 7 -22 4 -3 -3 -19 2
-36 11 -17 8 -31 13 -31 11 0 -10 -88 33 -178 88 -51 31 -97 56 -102 56 -6 0
-10 5 -10 10 0 6 -4 10 -8 10 -9 0 -179 93 -327 178 -44 25 -89 50 -100 56
-11 7 -39 24 -62 39 -24 15 -47 27 -52 27 -5 0 -14 7 -21 15 -7 9 -15 13 -18
11 -2 -3 -16 4 -30 14 -13 11 -30 20 -38 20 -7 0 -14 4 -16 8 -2 8 -239 150
-398 240 -25 14 -62 36 -82 49 -21 12 -42 23 -47 23 -5 0 -11 3 -13 8 -3 7
-30 23 -113 68 -27 14 -57 32 -65 39 -8 7 -35 24 -60 38 -125 69 -145 81 -150
87 -3 3 -23 14 -45 25 -22 11 -41 23 -43 28 -2 4 -9 7 -17 7 -7 0 -18 7 -25
15 -6 8 -15 13 -18 12 -4 -1 -23 8 -42 19 -34 21 -447 256 -520 296 -128 71
-289 164 -312 179 -15 11 -29 19 -32 19 -2 0 -43 22 -91 50 -48 27 -88 50 -90
50 -2 0 -56 32 -119 70 -64 39 -119 70 -124 70 -5 0 -17 9 -27 20 -10 11 -22
20 -26 20 -5 0 -68 36 -140 80 -73 44 -133 80 -135 80 -2 0 -29 16 -60 36 -30
20 -99 58 -152 86 -54 28 -111 58 -128 67 -59 32 -163 132 -170 165 -11 43 -6
131 9 182 3 10 8 39 11 65 3 25 7 52 10 60 3 7 7 30 10 49 3 19 14 80 25 135
18 93 28 151 35 200 2 11 11 61 21 110 9 50 19 100 21 113 12 68 25 140 28
158 2 12 7 37 10 55 3 19 8 45 11 59 3 14 8 41 11 60 2 19 10 57 15 83 6 26 9
51 5 54 -3 3 -2 11 3 17 5 6 12 34 15 61 4 28 9 58 12 68 3 11 7 29 9 40 2 22
20 118 30 167 3 14 8 45 10 68 3 24 7 47 9 51 2 3 7 25 10 47 4 22 8 51 11 64
6 28 23 121 30 163 3 15 7 39 10 55 3 15 8 41 10 57 3 17 7 41 10 55 3 14 8
41 11 60 9 62 10 62 66 28 29 -17 76 -43 103 -57z"/>
<path d="M3050 7113 c-101 -51 -190 -93 -196 -93 -7 0 -14 -3 -16 -7 -3 -7
-376 -197 -388 -198 -3 0 -12 -5 -20 -10 -8 -5 -111 -57 -228 -115 -209 -104
-213 -107 -185 -119 65 -31 78 -27 283 79 107 55 232 119 276 142 l82 41 45
-29 c50 -32 109 -67 117 -69 3 0 25 -13 50 -29 25 -15 55 -34 67 -42 12 -7 39
-23 60 -35 55 -31 421 -248 463 -274 79 -50 141 -85 150 -85 6 0 10 -4 10 -10
0 -5 4 -10 10 -10 5 0 38 -17 72 -38 46 -28 69 -37 83 -31 11 4 32 10 48 13
32 7 35 22 7 31 -11 3 -20 11 -20 16 0 5 -4 9 -10 9 -5 0 -39 18 -75 40 -36
22 -70 40 -75 40 -6 0 -10 5 -10 10 0 6 -5 10 -10 10 -6 0 -39 18 -74 40 -35
22 -68 40 -74 40 -6 0 -12 4 -14 8 -1 5 -45 32 -96 61 -51 29 -99 59 -107 67
-8 8 -16 13 -17 12 -2 -2 -75 40 -163 92 -88 52 -165 96 -172 98 -7 2 -13 8
-13 13 0 5 -4 9 -9 9 -12 0 -130 70 -136 80 -3 5 41 31 97 60 253 128 434 222
441 229 5 5 -9 17 -30 28 l-38 20 -185 -94z"/>
</g>
</svg>
